<svg id="Layer_1" data-name="Layer 1" xmlns="http://www.w3.org/2000/svg" viewBox="0 0 275 275"><defs><style>.cls-1{fill:#f83;}.cls-2{fill:#ff6d02;}</style></defs><title>1</title><path class="cls-1" d="M138,91a5,5,0,1,0-10.08,0v11.65H138Z"/><g id="_Group_" data-name="&lt;Group&gt;"><path class="cls-1" d="M188.73,188.33,175,174.57l-6.66,6.67a2.38,2.38,0,0,1-2.21.63,2.36,2.36,0,0,1-1.7-1.55l-13.33-40a2.36,2.36,0,0,1,3-3l40,13.33a2.36,2.36,0,0,1,1.55,1.7,2.33,2.33,0,0,1-.63,2.2l-6.66,6.67L202.07,175a2.37,2.37,0,0,1,0,3.34l-10,10A2.37,2.37,0,0,1,188.73,188.33Z"/></g><path class="cls-2" d="M187.86,87.78H142v16.83a1.89,1.89,0,0,1-1.89,1.89H125.84a1.89,1.89,0,0,1-1.89-1.89V87.78h-42a9.7,9.7,0,0,0-9.7,9.7v76.21a9.71,9.71,0,0,0,9.7,9.7h78L143.78,134.9a3.39,3.39,0,0,1,4.28-4.29l49.44,16.48c0-1.44,0-2.6,0-2.61V117.65l.1,0V97.48A9.7,9.7,0,0,0,187.86,87.78Zm-83.8,89.71H79.37a2.92,2.92,0,1,1,0-5.84h24.69a2.92,2.92,0,1,1,0,5.84Zm0-8.76H79.37a2.92,2.92,0,1,1,0-5.84h24.69a2.92,2.92,0,0,1,0,5.84Zm19.23-33.88a2,2,0,0,1,2-2H137a2,2,0,1,1,0,3.93H125.25A2,2,0,0,1,123.29,134.85Zm18.57,9.71-8.33,8.33a2,2,0,1,1-2.77-2.78l8.33-8.33a2,2,0,0,1,2.77,2.78Zm0-16.65a2,2,0,0,1-2.77,0l-8.33-8.33a2,2,0,1,1,2.77-2.77l8.33,8.32A2,2,0,0,1,141.86,127.91Zm8.9-4.84a2,2,0,1,1-3.92,0V111.3a2,2,0,1,1,3.92,0Zm16.08-3.49-8.33,8.33a2,2,0,0,1-2.77-2.78l8.32-8.32a2,2,0,0,1,2.78,2.77Z"/></svg>