<svg id="Layer_1" data-name="Layer 1" xmlns="http://www.w3.org/2000/svg" viewBox="0 0 275 275"><defs><style>.cls-1{fill:#f83;}.cls-2{fill:#ff6d02;}</style></defs><title>1</title><path class="cls-1" d="M189.58,193.18s18.56-15.31,7.69-41.47c-7.17-17.27-26.37-19.76-34-20.06a3,3,0,0,0-3.15,3V145l-29.43-21.4,29.76-21.73v10.19a3,3,0,0,0,3.09,3c7.86-.1,28.85,1.31,40.38,18.2C218.34,154.39,211.32,182.14,189.58,193.18Z"/><path class="cls-1" d="M117.69,87.17V99.55h10.7V87.17A5.36,5.36,0,0,0,123,81.82h0A5.35,5.35,0,0,0,117.69,87.17Z"/><path class="cls-2" d="M186.91,115.57V94.13a10.3,10.3,0,0,0-10.3-10.3H132.73v17.86a2,2,0,0,1-2,2H115.6a2,2,0,0,1-2-2V83.83H73.81a10.3,10.3,0,0,0-10.29,10.3v76a10.3,10.3,0,0,0,10.29,10.3h102.8a10.3,10.3,0,0,0,10.3-10.3V144.06a78.32,78.32,0,0,0-21.62-7.54v15.29a1.77,1.77,0,0,1-2.8,1.43L124,125.4a1.76,1.76,0,0,1,0-2.85l38.52-28.34a1.76,1.76,0,0,1,2.78,1.15v15.55A94.6,94.6,0,0,1,186.91,115.57Zm-86.53,55.54a3.1,3.1,0,0,1-3.1,3.1H71.08a3.1,3.1,0,0,1-3.1-3.1h0a3.1,3.1,0,0,1,3.1-3.1h26.2a3.1,3.1,0,0,1,3.1,3.1Zm-3.1-6.2H71.08a3.1,3.1,0,0,1,0-6.2h26.2a3.1,3.1,0,0,1,0,6.2Z"/></svg>