<svg id="Layer_1" data-name="Layer 1" xmlns="http://www.w3.org/2000/svg" viewBox="0 0 275 275"><defs><style>.cls-1{fill:#f83;}.cls-2{fill:#ff6d02;}</style></defs><title>1</title><path class="cls-1" d="M106.15,142.25a3.63,3.63,0,0,0-7.26,0v8.39h7.26Z"/><path class="cls-1" d="M173.34,142.25a3.63,3.63,0,1,0-7.25,0v8.39h7.25Z"/><path class="cls-2" d="M202.54,161.44V146.89a7,7,0,0,0-7-7H176.19V152a1.36,1.36,0,0,1-1.36,1.36H164.58a1.36,1.36,0,0,1-1.37-1.36V139.91H146.63a7,7,0,0,0-7,7v49a7,7,0,0,0,7,7h48.93a7,7,0,0,0,7-7V180.76l-.07,0V161.41Zm-40,37.17H144.78a2.1,2.1,0,1,1,0-4.2h17.77a2.1,2.1,0,1,1,0,4.2Zm0-6.3H144.78a2.11,2.11,0,0,1,0-4.21h17.77a2.11,2.11,0,1,1,0,4.21Z"/><path class="cls-2" d="M135.35,161.44V146.89a7,7,0,0,0-7-7H109V152a1.36,1.36,0,0,1-1.36,1.36H97.38A1.36,1.36,0,0,1,96,152V139.91H79.44a7,7,0,0,0-7,7v49a7,7,0,0,0,7,7h48.93a7,7,0,0,0,7-7V180.76l-.07,0V161.41Zm-40,37.17H77.59a2.1,2.1,0,1,1,0-4.2H95.36a2.1,2.1,0,1,1,0,4.2Zm0-6.3H77.59a2.11,2.11,0,0,1,0-4.21H95.36a2.11,2.11,0,0,1,0,4.21Z"/><path class="cls-1" d="M139.75,75.77a3.63,3.63,0,1,0-7.26,0v8.39h7.26Z"/><path class="cls-2" d="M169,95V80.42a7,7,0,0,0-7-7H142.6V85.55a1.36,1.36,0,0,1-1.37,1.36H131a1.36,1.36,0,0,1-1.36-1.36V73.43H113a7,7,0,0,0-7,7v49a7,7,0,0,0,7,7H162a7,7,0,0,0,7-7V114.29l-.07,0V94.94Zm-40,37.18H111.19a2.11,2.11,0,1,1,0-4.21H129a2.11,2.11,0,0,1,0,4.21Zm0-6.31H111.19a2.1,2.1,0,1,1,0-4.2H129a2.1,2.1,0,0,1,0,4.2Z"/></svg>