<svg id="Layer_1" data-name="Layer 1" xmlns="http://www.w3.org/2000/svg" viewBox="0 0 275 275"><defs><style>.cls-1{fill:#f83;}.cls-2{fill:#ff6d02;}</style></defs><title>1</title><polygon class="cls-1" points="179.96 115.56 179.96 129.41 188.75 122.88 179.96 115.56"/><polygon class="cls-1" points="86.28 122.88 94.79 129.22 94.79 115.82 86.28 122.88"/><path class="cls-2" d="M169,83.41H126V98.3a2.06,2.06,0,0,1-2.06,2.06H111.48a2.06,2.06,0,0,1-2.06-2.06V83.41h-3.71a5.33,5.33,0,0,0-5.33,5.34v44.63l32.11,23.9a8.59,8.59,0,0,0,10.08,0l31.8-23.7V88.75A5.34,5.34,0,0,0,169,83.41Zm-14.21,45.21H120.2a2.79,2.79,0,1,1,0-5.58h34.63a2.79,2.79,0,0,1,0,5.58Zm0-14H139.75a2.79,2.79,0,1,1,0-5.58h15.08a2.79,2.79,0,0,1,0,5.58Z"/><path class="cls-1" d="M113,85.75V96.49h9.28V85.75a4.64,4.64,0,0,0-4.64-4.64h0A4.64,4.64,0,0,0,113,85.75Z"/><path class="cls-2" d="M145.84,161.75a13.69,13.69,0,0,1-8.3,2.74,13.92,13.92,0,0,1-8.32-2.74l-44.48-33.2v56.94a8.35,8.35,0,0,0,8.29,8.4H182a8.35,8.35,0,0,0,8.29-8.4V128.55Zm-27.62,21.69H95.29a2.69,2.69,0,0,1,0-5.37h22.93a2.69,2.69,0,1,1,0,5.37Zm0-7.9H95.29a2.69,2.69,0,0,1,0-5.38h22.93a2.69,2.69,0,0,1,0,5.38Z"/></svg>