<svg id="Layer_1" data-name="Layer 1" xmlns="http://www.w3.org/2000/svg" viewBox="0 0 275 275"><defs><style>.cls-1{fill:none;stroke:#f83;stroke-linecap:round;stroke-miterlimit:10;stroke-width:3.38px;}.cls-2{fill:#ff6d02;}</style></defs><title>1</title><path class="cls-1" d="M71,104.67h0a18.29,18.29,0,0,1,18.29-18.3"/><path class="cls-1" d="M209.93,176.69h0A18.29,18.29,0,0,1,191.64,195"/><path class="cls-1" d="M65.07,95.27h0A15.26,15.26,0,0,1,80.33,80"/><path class="cls-2" d="M188.34,97.75H172.71v11.82a9.56,9.56,0,1,1,12.54,12.87h11.83v-16A8.75,8.75,0,0,0,188.34,97.75Z"/><path class="cls-2" d="M184.09,134.1a1.86,1.86,0,0,1-2.63,2.63L172.71,128v54.55h15.63a8.76,8.76,0,0,0,8.74-8.75V126.15h-21Z"/><path class="cls-2" d="M187.15,113.25a5.75,5.75,0,0,0-5.87-5.19,6,6,0,0,0-3,.79,5.74,5.74,0,0,0-2.8,3.89l-1.62,8.33,8.51-1.59A5.76,5.76,0,0,0,187.15,113.25Z"/><path class="cls-2" d="M167,112.75a5.9,5.9,0,0,0-11.68,1.07,5.82,5.82,0,0,0,4.78,5.66l8.51,1.59Z"/><path class="cls-2" d="M84.25,106.49v16h73a9.45,9.45,0,0,1,4-18.09,9.67,9.67,0,0,1,7.78,3.93V97.75H93A8.74,8.74,0,0,0,84.25,106.49Z"/><path class="cls-2" d="M157.2,139.77a1.85,1.85,0,1,1-2.62-2.62l11-11H84.25v47.62A8.75,8.75,0,0,0,93,182.52h76V128Zm-41.06,37.58H93.52a2.89,2.89,0,0,1,0-5.78h22.62a2.89,2.89,0,0,1,0,5.78Zm0-8.67H93.52a2.89,2.89,0,1,1,0-5.77h22.62a2.89,2.89,0,1,1,0,5.77Z"/></svg>