<svg id="Layer_1" data-name="Layer 1" xmlns="http://www.w3.org/2000/svg" viewBox="0 0 275 275"><defs><style>.cls-1{fill:#ff6d02;}.cls-2{fill:#f83;}</style></defs><title>1</title><path class="cls-1" d="M200.79,164.06H199V135.35a11.08,11.08,0,0,0-2-6.3l-11.5-16.65a18.31,18.31,0,0,0-15-7.88h-18a3.32,3.32,0,0,0-3.31,3.32v56.22H119.52a15.85,15.85,0,0,1,5.35,9.73h31.85a15.86,15.86,0,0,1,31.34,0h12.73a4.87,4.87,0,1,0,0-9.73Zm-17.12-31.42H159.9a1.52,1.52,0,0,1-1.53-1.53V117.06a1.86,1.86,0,0,1,1.85-1.86h15.49a.85.85,0,0,1,.72.39c1.46,2.17,8.55,12.68,9.18,13.63S187,132.64,183.67,132.64Z"/><path class="cls-1" d="M98.83,164.06H74.21a4.87,4.87,0,1,0,0,9.73H93.48A15.85,15.85,0,0,1,98.83,164.06Z"/><path class="cls-2" d="M172.26,164.53a12,12,0,1,0,12,12A12,12,0,0,0,172.26,164.53Zm0,17.94a6,6,0,1,1,6-6A6,6,0,0,1,172.26,182.47Z"/><path class="cls-2" d="M109.2,164.53a12,12,0,1,0,12,12A12,12,0,0,0,109.2,164.53Zm0,17.94a6,6,0,1,1,6-6A6,6,0,0,1,109.2,182.47Z"/><path class="cls-2" d="M111,90.62a4.08,4.08,0,0,0-8.15,0V100H111Z"/><path class="cls-1" d="M143.82,112.17V95.84A7.84,7.84,0,0,0,136,88H114.24v13.6a1.54,1.54,0,0,1-1.53,1.53H101.2a1.53,1.53,0,0,1-1.53-1.53V88H81.05a7.84,7.84,0,0,0-7.84,7.84v55a7.84,7.84,0,0,0,7.84,7.84H136a7.84,7.84,0,0,0,7.84-7.84v-17l-.08,0V112.14ZM98.93,153.9H79a2.36,2.36,0,0,1,0-4.72h20a2.36,2.36,0,1,1,0,4.72Zm0-7.08H79a2.36,2.36,0,0,1,0-4.72h20a2.36,2.36,0,0,1,0,4.72Z"/></svg>