<svg id="Layer_1" data-name="Layer 1" xmlns="http://www.w3.org/2000/svg" viewBox="0 0 275 275"><defs><style>.cls-1{fill:none;stroke:#f83;stroke-linecap:round;stroke-miterlimit:10;stroke-width:3.38px;}.cls-2{fill:#ff6d02;}.cls-3{fill:#f83;}</style></defs><title>1</title><line class="cls-1" x1="154.1" y1="181.8" x2="173.92" y2="181.8"/><path class="cls-1" d="M157.29,92.65H173c13.74,0,25,10.24,25,22.75h0c0,12.51-11.24,22.75-25,22.75H157.29"/><path class="cls-1" d="M115,137.2H99.24c-13.74,0-25,10.23-25,22.75h0c0,12.51,11.24,22.75,25,22.75H115"/><path class="cls-2" d="M157.26,86.48V78A4.07,4.07,0,0,0,153.19,74h-34.8A4.07,4.07,0,0,0,114.32,78v28.52a4.07,4.07,0,0,0,4.07,4.06h34.8a4.07,4.07,0,0,0,4.07-4.06v-8.8l0,0V86.47Zm-6.67,11.36H121a1.86,1.86,0,0,1,0-3.72h29.6a1.86,1.86,0,0,1,0,3.72Zm0-7.41H121a1.86,1.86,0,1,1,0-3.72h29.6a1.86,1.86,0,0,1,0,3.72Z"/><path class="cls-2" d="M157.26,131.71v-8.47a4.07,4.07,0,0,0-4.07-4.07h-34.8a4.07,4.07,0,0,0-4.07,4.07v28.52a4.07,4.07,0,0,0,4.07,4.07h34.8a4.07,4.07,0,0,0,4.07-4.07V143l0,0V131.7Zm-6.67,11.36H121a1.86,1.86,0,0,1,0-3.72h29.6a1.86,1.86,0,0,1,0,3.72Zm0-7.42H121a1.86,1.86,0,1,1,0-3.72h29.6a1.86,1.86,0,1,1,0,3.72Z"/><path class="cls-2" d="M157.26,176.93v-8.47a4.07,4.07,0,0,0-4.07-4.06h-34.8a4.07,4.07,0,0,0-4.07,4.06V197a4.07,4.07,0,0,0,4.07,4.07h34.8a4.07,4.07,0,0,0,4.07-4.07v-8.79l0,0V176.92Zm-6.67,11.36H121a1.86,1.86,0,0,1,0-3.72h29.6a1.86,1.86,0,0,1,0,3.72Zm0-7.41H121a1.86,1.86,0,0,1,0-3.72h29.6a1.86,1.86,0,0,1,0,3.72Z"/><path class="cls-2" d="M186.66,193.49a.56.56,0,0,1-.79,0l-8.33-8.33a3.19,3.19,0,0,1,4.51-4.5l3.8,3.8a.59.59,0,0,0,.83,0l11.12-11.12a14.45,14.45,0,1,0,2.87,8.65,14.73,14.73,0,0,0-.18-2.32Z"/><path class="cls-3" d="M201.84,173.64h0a2,2,0,0,0-2.83,0l-12.75,12.75-3.67-3.67a2.16,2.16,0,0,0-1.52-.63H179.3a.16.16,0,0,0-.15.16V184a2.12,2.12,0,0,0,.63,1.52l6.49,6.5,2.82-2.81h0l12.75-12.75A2,2,0,0,0,201.84,173.64Z"/></svg>