<svg id="Layer_1" data-name="Layer 1" xmlns="http://www.w3.org/2000/svg" viewBox="0 0 275 275"><defs><style>.cls-1{fill:#ff6d02;}.cls-2{fill:#f83;}</style></defs><title>1</title><rect class="cls-1" x="171.89" y="114.29" width="17.66" height="2.21" rx="1.1"/><rect class="cls-1" x="85.44" y="114.17" width="17.66" height="2.21" rx="1.1"/><path class="cls-2" d="M139.65,93.86a3.47,3.47,0,0,0-6.94,0v8h6.94Z"/><path class="cls-1" d="M167.56,112.21V98.3a6.68,6.68,0,0,0-6.68-6.67H142.37v11.58a1.3,1.3,0,0,1-1.3,1.3h-9.8a1.31,1.31,0,0,1-1.31-1.3V91.63H114.12a6.68,6.68,0,0,0-6.68,6.67v46.82a6.68,6.68,0,0,0,6.68,6.68h46.76a6.68,6.68,0,0,0,6.68-6.68V130.68l-.07,0V112.18Zm-38.23,35.53h-17a2,2,0,1,1,0-4h17a2,2,0,0,1,0,4Zm0-6h-17a2,2,0,1,1,0-4h17a2,2,0,0,1,0,4Z"/><rect class="cls-2" x="82.79" y="107.36" width="7.91" height="72.46" rx="3.95"/><rect class="cls-2" x="184.3" y="104.42" width="7.91" height="72.46" rx="3.95"/><rect class="cls-1" x="72.03" y="173.94" width="130.94" height="10.67" rx="5.33"/></svg>