<svg id="Layer_1" data-name="Layer 1" xmlns="http://www.w3.org/2000/svg" viewBox="0 0 275 275"><defs><style>.cls-1{fill:#ff6d02;}.cls-2{fill:none;stroke:#f83;stroke-linecap:round;stroke-miterlimit:10;stroke-width:3.38px;}.cls-3{fill:#f83;}</style></defs><title>1</title><path class="cls-1" d="M170.71,88.54H125.29v15.72a2.19,2.19,0,0,1-2.18,2.18H109.92a2.18,2.18,0,0,1-2.17-2.18V88.54h-3.92a5.64,5.64,0,0,0-5.64,5.64v89.49a5.64,5.64,0,0,0,5.62,5.64l66.89.17a5.63,5.63,0,0,0,5.65-5.63V94.18A5.63,5.63,0,0,0,170.71,88.54Zm-15,47.75H119.26a3,3,0,0,1-3-2.35,3,3,0,0,1,2.89-3.54h36.45a3,3,0,0,1,3,2.35A3,3,0,0,1,155.71,136.29Zm0-14.74h-15.8a3,3,0,0,1-3-2.36,3,3,0,0,1,2.89-3.54h15.8a3,3,0,0,1,3,2.35A3,3,0,0,1,155.71,121.55Z"/><path class="cls-2" d="M106.13,83.07c-3.6,0-7,.07-7,.07a6.36,6.36,0,0,0-6.46,6.24v99.07a6.34,6.34,0,0,0,6.44,6.23l76.7.2a6.35,6.35,0,0,0,6.48-6.23V89.38a6.36,6.36,0,0,0-6.46-6.24s-27.57-.09-48.95-.09"/><path class="cls-3" d="M111.56,83.34v19h9.8v-19a4.9,4.9,0,0,0-4.9-4.91h0A4.9,4.9,0,0,0,111.56,83.34Z"/></svg>