<svg id="Layer_1" data-name="Layer 1" xmlns="http://www.w3.org/2000/svg" viewBox="0 0 275 275"><defs><style>.cls-1,.cls-3{fill:#f83;}.cls-2{fill:#ff6d02;}.cls-3{opacity:0.5;}</style></defs><title>1</title><path class="cls-1" d="M153.79,91.49a4.08,4.08,0,0,0-8.15,0v9.42h8.15Z"/><path class="cls-2" d="M201.91,113V96.71a7.84,7.84,0,0,0-7.84-7.84H157v13.6a1.53,1.53,0,0,1-1.53,1.53H144a1.53,1.53,0,0,1-1.53-1.53V88.87H108.47a7.84,7.84,0,0,0-7.84,7.84v55a7.84,7.84,0,0,0,7.84,7.84h85.6a7.84,7.84,0,0,0,7.84-7.84v-17l-.08,0V113Zm-75.57,41.73h-20a2.36,2.36,0,1,1,0-4.72h20a2.36,2.36,0,0,1,0,4.72Zm0-7.08h-20a2.36,2.36,0,0,1,0-4.72h20a2.36,2.36,0,0,1,0,4.72Z"/><rect class="cls-3" x="73.09" y="116.19" width="100.76" height="71.4" rx="6.92"/></svg>