<svg id="Layer_1" data-name="Layer 1" xmlns="http://www.w3.org/2000/svg" viewBox="0 0 275 275"><defs><style>.cls-1{fill:#ff6d02;}.cls-2{fill:#f83;}</style></defs><title>1</title><path class="cls-1" d="M159,77.16h-3.46v8.23a6.53,6.53,0,0,1-6.53,6.53H113.64a6.53,6.53,0,0,1-6.53-6.53V77.16h-3.46A10.21,10.21,0,0,0,93.44,87.37v12.91h75.81V87.37A10.21,10.21,0,0,0,159,77.16Z"/><path class="cls-2" d="M116,88.68h30.37a5.09,5.09,0,0,0,5.09-5.1V77.16H110.94v6.42A5.1,5.1,0,0,0,116,88.68Z"/><path class="cls-1" d="M93.62,175h75.62a0,0,0,0,1,0,0v13.65a9.18,9.18,0,0,1-9.18,9.18H102.79a9.18,9.18,0,0,1-9.18-9.18V175A0,0,0,0,1,93.62,175Z"/><path class="cls-1" d="M157.86,147.64h0L150,155.52a1.67,1.67,0,0,1-2.36,0l-15.77-15.77a6.41,6.41,0,1,1,9.06-9.07l6.66,6.67a1.67,1.67,0,0,0,2.36,0l19.51-19.51V103.92H93.63v67.42h75.8V136.06ZM105,133.28H117.8a3.15,3.15,0,1,1,0,6.3H105a3.15,3.15,0,1,1,0-6.3ZM127,152H105.18a3.15,3.15,0,0,1,0-6.3H127a3.15,3.15,0,0,1,0,6.3Z"/><path class="cls-2" d="M180.36,115.7h0a4.08,4.08,0,0,0-5.78,0l-26.06,26.06-7.5-7.49A4.4,4.4,0,0,0,137.9,133h-3.6a.32.32,0,0,0-.32.32v3.6a4.4,4.4,0,0,0,1.29,3.12l13.28,13.28,5.75-5.75h0l26.06-26.07A4.08,4.08,0,0,0,180.36,115.7Z"/></svg>